<svg width="41" height="40" viewBox="0 0 41 40" fill="none" xmlns="http://www.w3.org/2000/svg">
<path d="M17.2474 1.92195C17.1224 1.93758 16.6771 1.99227 16.2709 2.03914C14.2162 2.27352 11.5287 3.08602 9.68494 4.03914L9.38025 4.18758L9.89587 4.44539C10.7396 4.85945 11.2787 5.60164 11.4506 6.59383C11.5209 7.00789 11.5131 7.17195 11.3881 7.62508C11.3099 7.92195 11.2318 8.35945 11.2162 8.59383C11.1849 9.00008 11.2162 9.09383 11.7709 10.2188C12.1927 11.0626 12.3959 11.3985 12.4662 11.3595C12.5131 11.3204 13.6068 10.6016 14.8802 9.75789C17.8177 7.80477 18.2084 7.6407 20.1927 7.50008C21.2709 7.42195 22.0834 7.2032 22.7474 6.81258C22.9427 6.69539 23.5599 6.24227 24.1146 5.80477C25.0834 5.03133 25.2865 4.92977 25.6068 5.04695C25.7709 5.10945 27.3646 7.48445 27.7162 8.19539C27.9662 8.68758 28.3724 9.92977 28.3881 10.2266C28.3881 10.3673 28.4974 10.1016 28.9037 8.94539C29.8256 6.31258 28.7474 3.60945 26.3099 2.42195C25.2396 1.89852 25.0052 1.87508 21.0131 1.88289C19.0677 1.8907 17.3802 1.91414 17.2474 1.92195Z" fill="white"/>
<path d="M24.4115 7.1485C23.1146 8.18756 21.6537 8.74225 20.2162 8.75006C19.5287 8.75006 18.7318 8.92194 18.1615 9.17975C17.9115 9.28912 16.7552 10.0157 15.5912 10.7969L13.4584 12.211V12.6719V13.1251H16.3881H19.3256L19.5131 13.3204C19.6771 13.4766 19.7084 13.586 19.7084 13.9454V14.3751H20.3334H20.9584V13.9454C20.9584 13.586 20.9896 13.4766 21.1537 13.3204L21.3412 13.1251H24.2787H27.2084V11.9532C27.2084 10.6641 27.0912 9.89069 26.7709 9.10162C26.599 8.67194 25.2709 6.56256 25.1771 6.57037C25.1537 6.57037 24.8099 6.82819 24.4115 7.1485Z" fill="white"/>
<path d="M11.5131 14.5157C11.0131 14.7891 10.8256 15.4141 11.099 15.922C11.224 16.1563 12.3568 17.1407 12.4271 17.0704C12.4427 17.0548 12.4193 16.7501 12.3724 16.3907C12.3256 16.0313 12.2709 15.4376 12.2396 15.0548C12.1849 14.3829 12.1849 14.3751 11.9818 14.3751C11.8724 14.3751 11.6537 14.4376 11.5131 14.5157Z" fill="white"/>
<path d="M13.4974 15.0938C13.6068 16.6876 13.9584 18.3204 14.4896 19.7657C14.7474 20.4688 15.3724 21.8204 15.6381 22.2501L15.8021 22.5001L20.349 22.4844L24.8959 22.461L25.1615 21.9922C26.2631 20.0626 26.974 17.6172 27.1771 15.0547L27.224 14.3751H26.5912H25.9584V15.4376C25.9584 16.7657 25.8881 17.0313 25.3724 17.5391C24.8802 18.0391 24.5912 18.1251 23.4584 18.1251C22.3256 18.1251 22.0365 18.0391 21.5443 17.5391C21.099 17.1016 20.9584 16.7422 20.9584 16.0626V15.6251H20.3334H19.7084V16.0626C19.7084 16.7422 19.5677 17.1016 19.1224 17.5391C18.6302 18.0391 18.3412 18.1251 17.2084 18.1251C16.0756 18.1251 15.7865 18.0391 15.2943 17.5391C14.7787 17.0313 14.7084 16.7657 14.7084 15.4376V14.3751H14.0756H13.4427L13.4974 15.0938Z" fill="white"/>
<path d="M15.9584 15.4297C15.9584 16.4532 15.9662 16.5001 16.1537 16.6797C16.3334 16.8672 16.3959 16.8751 17.2084 16.8751C18.0209 16.8751 18.0834 16.8672 18.2631 16.6797C18.4506 16.5001 18.4584 16.4532 18.4584 15.4297V14.3751H17.2084H15.9584V15.4297Z" fill="white"/>
<path d="M22.2084 15.4297C22.2084 16.4532 22.2162 16.5001 22.4037 16.6797C22.5834 16.8672 22.6459 16.8751 23.4584 16.8751C24.2709 16.8751 24.3334 16.8672 24.5131 16.6797C24.7006 16.5001 24.7084 16.4532 24.7084 15.4297V14.3751H23.4584H22.2084V15.4297Z" fill="white"/>
<path d="M28.4271 15.047C28.3959 15.4298 28.3334 16.0313 28.2865 16.3907C28.2474 16.7501 28.224 17.0548 28.2396 17.0704C28.3021 17.1407 29.4427 16.1563 29.5756 15.922C29.9115 15.3126 29.4896 14.4923 28.7943 14.3985L28.4818 14.3595L28.4271 15.047Z" fill="white"/>
<path d="M8.45837 23.8516C8.07556 23.9766 7.41931 24.6485 7.30212 25.0469C7.23181 25.2891 7.20837 26.9688 7.20837 31.7501V38.1251H20.3334H33.4584V31.7501C33.4584 27.0469 33.4349 25.2891 33.3646 25.0626C33.3177 24.8907 33.1224 24.5782 32.9349 24.3751C32.3256 23.6954 33.3802 23.7501 20.3021 23.7579C12.1068 23.7657 8.65369 23.7891 8.45837 23.8516ZM16.474 24.8985C17.0834 25.4766 17.1224 25.3594 15.9896 26.4922L14.9818 27.5001L15.9818 28.5001C16.5287 29.0469 16.974 29.5313 16.974 29.5704C16.974 29.6719 16.2552 30.3907 16.1537 30.3907C16.1068 30.3907 15.4818 29.7969 14.7631 29.0782C13.5912 27.8985 13.4584 27.7344 13.4584 27.5001C13.4584 27.2657 13.5912 27.1016 14.7631 25.9219C15.4818 25.2032 16.0912 24.6094 16.1146 24.6094C16.1381 24.6094 16.3021 24.7422 16.474 24.8985ZM22.5131 25.2266L22.7084 25.3751L20.8334 27.8751L18.9584 30.3751L18.5052 30.0313C18.2474 29.8438 18.0287 29.6719 18.0052 29.6563C17.9818 29.6329 18.8099 28.4922 19.8334 27.1251L21.7006 24.6329L22.0131 24.8594C22.1849 24.9766 22.4115 25.1485 22.5131 25.2266ZM25.9037 25.9219C27.0756 27.1016 27.2084 27.2657 27.2084 27.5001C27.2084 27.7344 27.0756 27.8985 25.8802 29.0938L24.5521 30.4297L24.1068 29.9844L23.6537 29.5313L24.6693 28.5157L25.6849 27.5001L24.6849 26.5001C24.1381 25.9532 23.6927 25.4688 23.6927 25.4297C23.6927 25.3282 24.4115 24.6094 24.5131 24.6094C24.5599 24.6094 25.1849 25.2032 25.9037 25.9219ZM21.3881 31.4922C21.8802 31.7266 22.349 32.1954 22.599 32.6954C22.7552 33.0157 22.7943 33.2032 22.7943 33.7501C22.7865 34.3516 22.7631 34.461 22.5287 34.9063C22.2318 35.4532 21.9818 35.6954 21.3959 36.0001C21.0599 36.1719 20.8959 36.2032 20.3334 36.2032C19.7865 36.211 19.599 36.1719 19.2787 36.0157C17.2474 35.0157 17.4193 32.1485 19.5521 31.3751C20.0443 31.1954 20.8802 31.2501 21.3881 31.4922Z" fill="white"/>
<path d="M19.8256 32.6094C19.0365 32.9532 18.849 34.0001 19.4662 34.6172C19.974 35.1251 20.6927 35.1251 21.2006 34.6172C22.1693 33.6485 21.0834 32.0626 19.8256 32.6094Z" fill="white"/>
<path d="M5.41931 29.8204C4.4115 30.4141 3.31775 31.6797 2.79431 32.8594C2.349 33.8751 2.27087 34.3516 2.23181 36.3126L2.19275 38.1251H4.07556H5.95837V33.8282C5.95837 31.461 5.95056 29.5313 5.93494 29.5313C5.92712 29.5313 5.69275 29.6641 5.41931 29.8204Z" fill="white"/>
<path d="M34.7084 33.8282V38.1251H36.5912H38.474L38.4349 36.3047C38.4037 34.3672 38.3412 34.0079 37.8959 32.9141C37.4271 31.7891 36.4037 30.5704 35.3568 29.8907C35.0521 29.6954 34.7787 29.5313 34.7552 29.5313C34.7318 29.5313 34.7084 31.461 34.7084 33.8282Z" fill="white"/>
</svg>
