<svg width="40" height="41" viewBox="0 0 40 41" fill="none" xmlns="http://www.w3.org/2000/svg">
<mask id="mask0_442_274" style="mask-type:luminance" maskUnits="userSpaceOnUse" x="0" y="0" width="40" height="41">
<path d="M40 0.681885H0V40.6922H40V0.681885Z" fill="white"/>
</mask>
<g mask="url(#mask0_442_274)">
<path d="M39.6531 29.7925L35.5531 27.742L32.9438 20.9527C32.913 20.8725 32.8661 20.7994 32.8059 20.7381C32.7457 20.6768 32.6735 20.6285 32.5938 20.5964L16.4031 14.1228C16.2899 14.0778 16.166 14.0668 16.0467 14.0912C15.9273 14.1156 15.8177 14.1744 15.7313 14.2604L13.5719 16.4203C13.4871 16.5068 13.4293 16.6161 13.4054 16.7348C13.3816 16.8536 13.3927 16.9767 13.4375 17.0892L19.9094 33.284C19.9415 33.3637 19.9897 33.436 20.051 33.4962C20.1123 33.5564 20.1854 33.6034 20.2656 33.6341L27.0531 36.2442L29.1031 40.3452C29.1463 40.4356 29.2106 40.5144 29.2905 40.5747C29.3705 40.6351 29.4637 40.6754 29.5625 40.6922C29.5958 40.6953 29.6293 40.6953 29.6625 40.6922C29.828 40.6915 29.9865 40.6252 30.1031 40.5078L39.8156 30.7928C39.8871 30.7238 39.9411 30.6387 39.9732 30.5447C40.0053 30.4506 40.0145 30.3503 40 30.252C39.9832 30.1532 39.943 30.0599 39.8826 29.9799C39.8222 29.9 39.7435 29.8357 39.6531 29.7925ZM14.7469 17.008L15.0938 16.6641L23.1531 24.7256C22.622 25.4784 22.3926 26.4032 22.5103 27.317C22.628 28.2309 23.0843 29.0673 23.7889 29.6609C24.4934 30.2544 25.395 30.562 26.3153 30.5226C27.2357 30.4833 28.1077 30.0999 28.7591 29.4484C29.4105 28.7969 29.7937 27.9246 29.8331 27.004C29.8724 26.0834 29.565 25.1816 28.9715 24.4768C28.3781 23.7721 27.5419 23.3157 26.6283 23.198C25.7147 23.0802 24.7901 23.3097 24.0375 23.841L15.9781 15.7795L16.3219 15.4326L31.875 21.656L34.3281 28.0389L27.35 35.0188L20.9688 32.5651L14.7469 17.008ZM26.1563 24.4161C26.718 24.417 27.262 24.6126 27.6957 24.9696C28.1294 25.3267 28.4259 25.8231 28.5348 26.3743C28.6436 26.9255 28.558 27.4974 28.2926 27.9926C28.0271 28.4878 27.5982 28.8756 27.079 29.0899C26.5598 29.3043 25.9823 29.3319 25.445 29.1682C24.9077 29.0044 24.4437 28.6594 24.1322 28.1919C23.8206 27.7243 23.6808 27.1632 23.7365 26.6041C23.7922 26.045 24.0399 25.5225 24.4375 25.1257C24.8938 24.6707 25.512 24.4155 26.1563 24.4161ZM29.8344 39.0105L28.2719 35.8847L35.1875 28.9673L38.3125 30.5302L29.8344 39.0105Z" fill="white"/>
<path d="M11.9531 34.128C11.8336 34.015 11.6754 33.9521 11.5109 33.9521C11.3465 33.9521 11.1882 34.015 11.0687 34.128L10.275 34.922C8.15678 32.0464 6.98825 28.5814 6.93223 25.01C6.87621 21.4386 7.9355 17.9387 9.96247 14.9981C10.5697 15.3323 11.269 15.4607 11.9553 15.364C12.6417 15.2673 13.2783 14.9507 13.7696 14.4617C14.261 13.9727 14.5807 13.3376 14.6808 12.6515C14.7809 11.9655 14.6561 11.2654 14.325 10.6563C17.2648 8.62884 20.7639 7.56928 24.3343 7.62531C27.9048 7.68134 31.3689 8.85017 34.2437 10.9689L33.4375 11.7535C33.3212 11.8707 33.2561 12.0291 33.2562 12.1942C33.2557 12.2765 33.2715 12.3581 33.3026 12.4342C33.3337 12.5104 33.3795 12.5797 33.4375 12.6381L36.1937 15.3732C36.3108 15.4896 36.4692 15.555 36.6343 15.555C36.7995 15.555 36.9579 15.4896 37.075 15.3732L39.8156 12.6318C39.8737 12.5738 39.9198 12.5048 39.9512 12.4289C39.9827 12.3531 39.9989 12.2717 39.9989 12.1895C39.9989 12.1074 39.9827 12.026 39.9512 11.9501C39.9198 11.8743 39.8737 11.8053 39.8156 11.7472L37.075 9.0059C36.9579 8.88947 36.7995 8.82411 36.6343 8.82411C36.4692 8.82411 36.3108 8.88947 36.1937 9.0059L35.1343 10.0593C32.5234 8.09409 29.4366 6.8594 26.1909 6.48201C22.9452 6.10462 19.6576 6.59813 16.6656 7.91187L20.2687 4.3172C20.6773 4.51246 21.1417 4.55666 21.5798 4.44195C22.0178 4.32725 22.401 4.06105 22.6615 3.6906C22.922 3.32014 23.0429 2.86937 23.0027 2.41825C22.9625 1.96713 22.7638 1.54483 22.442 1.22628C22.1201 0.907718 21.6959 0.713493 21.2445 0.678057C20.7931 0.642621 20.3437 0.768265 19.9761 1.0327C19.6085 1.29713 19.3465 1.68327 19.2364 2.12259C19.1264 2.56191 19.1755 3.02602 19.375 3.43259L13.2937 9.52479C12.6763 9.1105 11.9342 8.92349 11.1942 8.99572C10.4542 9.06794 9.76223 9.39492 9.23649 9.92079C8.71075 10.4467 8.38386 11.1388 8.31166 11.879C8.23945 12.6192 8.42641 13.3615 8.84059 13.9791L2.74997 20.0619C2.34191 19.863 1.87658 19.8153 1.43666 19.9271C0.996735 20.039 0.610713 20.3033 0.347187 20.673C0.0836619 21.0427 -0.0402998 21.4938 -0.00267003 21.9463C0.0349597 22.3988 0.231744 22.8233 0.552714 23.1443C0.873685 23.4654 1.29805 23.6622 1.75041 23.6998C2.20277 23.7375 2.65382 23.6135 3.02341 23.3499C3.39301 23.0863 3.6572 22.7002 3.76906 22.2601C3.88091 21.8201 3.83318 21.3547 3.63434 20.9465L7.23747 17.3518C5.92276 20.3438 5.42782 23.6318 5.80346 26.8783C6.1791 30.1248 7.41179 33.2129 9.37497 35.8253L8.31872 36.885C8.20231 37.0021 8.13697 37.1606 8.13697 37.3257C8.13697 37.4909 8.20231 37.6493 8.31872 37.7664L11.0593 40.5078C11.176 40.6252 11.3345 40.6915 11.5 40.6922C11.5824 40.6923 11.6641 40.676 11.7403 40.6444C11.8164 40.6127 11.8856 40.5663 11.9437 40.5078L14.6875 37.7664C14.8039 37.6493 14.8692 37.4909 14.8692 37.3257C14.8692 37.1606 14.8039 37.0021 14.6875 36.885L11.9531 34.128ZM36.6406 10.325L38.4968 12.1817L36.6406 14.0385L34.7843 12.1817L36.6406 10.325ZM20.625 2.12913C20.7178 2.03548 20.8364 1.97153 20.9657 1.9454C21.095 1.91927 21.2291 1.93214 21.351 1.98237C21.473 2.0326 21.5772 2.11794 21.6506 2.22754C21.724 2.33715 21.7632 2.46609 21.7632 2.598C21.7632 2.72992 21.724 2.85886 21.6506 2.96846C21.5772 3.07807 21.473 3.1634 21.351 3.21363C21.2291 3.26387 21.095 3.27674 20.9657 3.25061C20.8364 3.22448 20.7178 3.16053 20.625 3.06687C20.5634 3.00533 20.5145 2.93224 20.4811 2.85179C20.4478 2.77133 20.4306 2.6851 20.4306 2.598C20.4306 2.51091 20.4478 2.42467 20.4811 2.34422C20.5145 2.26377 20.5634 2.19068 20.625 2.12913ZM10.125 10.8095C10.3065 10.6271 10.5222 10.4823 10.7598 10.3836C10.9973 10.2848 11.2521 10.234 11.5093 10.234C11.7666 10.234 12.0214 10.2848 12.2589 10.3836C12.4965 10.4823 12.7122 10.6271 12.8937 10.8095C13.1681 11.0835 13.355 11.4327 13.4308 11.8129C13.5067 12.1932 13.4681 12.5874 13.3199 12.9457C13.1717 13.304 12.9205 13.6103 12.5982 13.8258C12.276 14.0413 11.897 14.1563 11.5093 14.1563C11.1217 14.1563 10.7427 14.0413 10.4204 13.8258C10.0982 13.6103 9.84702 13.304 9.69881 12.9457C9.55061 12.5874 9.51199 12.1932 9.58785 11.8129C9.6637 11.4327 9.85063 11.0835 10.125 10.8095ZM2.38747 22.25C2.25987 22.3564 2.09709 22.4112 1.93112 22.4037C1.76515 22.3962 1.60798 22.3269 1.4905 22.2094C1.37302 22.0919 1.30372 21.9347 1.29622 21.7687C1.28872 21.6027 1.34356 21.4398 1.44997 21.3122C1.57503 21.1893 1.74337 21.1204 1.91872 21.1204C2.09407 21.1204 2.2624 21.1893 2.38747 21.3122C2.44908 21.3738 2.49795 21.4468 2.53129 21.5273C2.56464 21.6078 2.5818 21.694 2.5818 21.7811C2.5818 21.8682 2.56464 21.9544 2.53129 22.0349C2.49795 22.1153 2.44908 22.1884 2.38747 22.25ZM11.5093 39.1699L9.65309 37.3132L11.5093 35.4565L13.3656 37.3132L11.5093 39.1699Z" fill="white"/>
</g>
</svg>
