<svg width="41" height="40" viewBox="0 0 41 40" fill="none" xmlns="http://www.w3.org/2000/svg">
<g clipPath="url(#clip0_446_395)">
<path d="M8.38031 0.171936C8.05999 0.257874 7.78656 0.335999 7.77874 0.343811C7.76312 0.359436 8.77093 4.37506 9.08343 5.55475L9.16156 5.836L9.73187 5.68756C10.0366 5.60162 10.3334 5.5235 10.3881 5.50787C10.4506 5.48444 10.2866 4.73444 9.85687 3.03131C9.04437 -0.156189 9.08343 6.10352e-05 9.02093 0.00787354C8.98968 0.00787354 8.70062 0.0859985 8.38031 0.171936Z" fill="white"/>
<path d="M29.6303 1.71098C29.6303 1.75786 29.56 2.27348 29.4741 2.86723C29.2944 4.0938 29.0912 4.56255 28.5522 4.97661C27.9037 5.4688 26.8725 5.50005 26.185 5.03911C26.0209 4.93755 25.5678 4.42192 25.1772 3.9063L24.4662 2.9688L23.3725 3.79692C22.5991 4.37505 22.3022 4.64848 22.3491 4.71098C22.8725 5.38286 23.6616 6.50004 23.7475 6.71098C23.8881 7.03129 23.8959 7.71098 23.7631 8.10942C23.56 8.75004 22.935 9.31254 22.2553 9.45317C21.9272 9.52348 21.6381 9.50786 20.7241 9.37504C20.1069 9.28911 19.5912 9.23442 19.5756 9.25004C19.5366 9.28911 19.1537 11.8907 19.1772 11.9141C19.1928 11.9219 19.6225 11.9922 20.1381 12.0625C21.5366 12.2579 21.8491 12.3672 22.2787 12.7969C23.0131 13.5313 23.1147 14.5782 22.5366 15.4219C22.4194 15.586 21.9116 16.0391 21.4116 16.4219L20.4897 17.1172L21.31 18.2032L22.1381 19.2969L22.9194 18.7032C24.0287 17.8672 24.3647 17.7032 24.9897 17.7188C25.9194 17.7266 26.685 18.3125 26.9428 19.1875C27.0678 19.625 27.0678 19.6954 26.9037 20.8125C26.8178 21.4532 26.7553 21.9922 26.7709 22.0157C26.81 22.0469 29.4194 22.4219 29.4428 22.3985C29.4506 22.3907 29.5366 21.875 29.6225 21.2579C29.7475 20.3985 29.8334 20.0469 29.9975 19.75C30.4037 19 31.1303 18.6172 31.9897 18.6954C32.7162 18.7579 33.06 19.0235 33.9116 20.1407L34.6381 21.0938L35.7319 20.2657C36.5053 19.6875 36.8022 19.4141 36.7553 19.3516C36.2319 18.6797 35.4584 17.5782 35.3725 17.3672C35.2006 16.9532 35.2241 16.1329 35.4116 15.7344C35.6537 15.2344 36.1772 14.7969 36.7162 14.6407C37.1537 14.5157 37.2162 14.5157 38.3412 14.6719C38.9819 14.7579 39.5209 14.8204 39.5366 14.8047C39.5756 14.7735 39.9506 12.1719 39.9272 12.1407C39.9116 12.1329 39.3959 12.0469 38.7787 11.961C37.9194 11.836 37.5678 11.75 37.2709 11.586C36.5209 11.1797 36.1381 10.4532 36.2162 9.59379C36.2787 8.86723 36.5444 8.52348 37.6616 7.67192C38.3256 7.16411 38.5991 6.91411 38.5522 6.85161C38.5131 6.79692 38.1537 6.32036 37.7553 5.7813C37.3569 5.24223 37.0131 4.78911 37.0053 4.77348C36.9897 4.75786 36.5522 5.06255 36.0287 5.45317C35.5131 5.83598 34.9506 6.19536 34.7866 6.24223C33.6537 6.57817 32.4819 5.95317 32.1537 4.85161C32.0366 4.44536 32.0444 4.35161 32.2006 3.25005C32.2866 2.60942 32.3491 2.07036 32.3334 2.05473C32.31 2.02348 29.8725 1.64848 29.6928 1.64067C29.6537 1.64067 29.6303 1.67192 29.6303 1.71098ZM30.8803 8.14067C32.2553 8.64067 33.2787 9.80473 33.5756 11.211C33.7162 11.8907 33.7162 12.1641 33.5756 12.836C33.2241 14.5079 31.8178 15.836 30.1381 16.0938C28.0444 16.4219 25.9741 14.961 25.5287 12.836C25.3881 12.1641 25.3881 11.8907 25.5287 11.211C25.8647 9.60161 27.1616 8.32036 28.81 7.96879C29.3256 7.85161 30.3256 7.93754 30.8803 8.14067Z" fill="white"/>
<path d="M19.8647 3.64848C16.9662 3.85942 14.1772 5.14067 12.0912 7.2266C8.2084 11.1016 7.34121 17.0469 9.96621 21.875C10.8334 23.4766 11.9818 24.7657 13.6537 26.0157C14.8803 26.9297 15.2631 27.336 15.6068 28.0704C15.9506 28.8047 16.0365 29.461 16.0365 31.3907C16.0365 32.7735 16.06 32.9688 16.2006 33.2813C16.4897 33.9297 16.9897 34.3047 17.724 34.4532C18.0365 34.5157 19.1225 34.5313 21.1147 34.5157C24.3647 34.4922 24.3256 34.4922 24.9272 33.9532C25.099 33.7969 25.3178 33.4844 25.4193 33.2579C25.5834 32.8829 25.599 32.711 25.6459 30.8204C25.7006 28.6485 25.7318 28.4922 26.1693 27.7422C26.4818 27.2032 26.9193 26.7735 27.7475 26.1797C28.5443 25.6172 29.4506 24.8204 30.0209 24.1875C30.31 23.875 30.3412 23.8125 30.2006 23.8438C29.9272 23.9141 25.8022 23.3047 25.5912 23.1563C25.2553 22.9454 25.2397 22.75 25.4506 21.3204C25.7084 19.5782 25.7006 19.5157 25.4037 19.2657C25.1459 19.0469 24.9428 19.0157 24.6928 19.1485C24.599 19.1954 24.0443 19.6016 23.4428 20.0469C22.849 20.4922 22.2709 20.8829 22.1693 20.9063C21.7318 21.0157 21.6225 20.9063 20.2787 19.125C19.5678 18.1719 18.9428 17.2969 18.9037 17.1875C18.7397 16.7657 18.8647 16.6094 20.1693 15.6329C20.849 15.1172 21.4272 14.6407 21.4584 14.5704C21.5834 14.2266 21.4662 13.8204 21.1928 13.6719C21.1147 13.625 20.4193 13.5 19.6615 13.3907C18.9037 13.2813 18.2006 13.1641 18.099 13.125C17.9975 13.086 17.8647 12.9454 17.8022 12.8204C17.685 12.6094 17.7006 12.4297 17.9897 10.4297C18.1615 9.25004 18.3334 8.20317 18.3803 8.12504C18.4272 8.0391 18.5522 7.9141 18.6537 7.84379C18.8334 7.7266 18.9584 7.73442 20.3959 7.93754C21.8959 8.14848 21.9662 8.14848 22.1615 8.01567C22.4193 7.8516 22.5522 7.57035 22.4975 7.32817C22.4662 7.2266 22.0912 6.67192 21.6615 6.09379C21.224 5.51567 20.8178 4.94535 20.7553 4.82817C20.5756 4.4766 20.6147 4.2266 20.9193 3.93754C21.0678 3.79692 21.1928 3.6641 21.1928 3.64067C21.1928 3.59379 20.5209 3.6016 19.8647 3.64848ZM16.0365 8.37504C16.2084 8.64848 16.349 8.90629 16.349 8.95317C16.349 8.99223 16.1303 9.19535 15.8647 9.39067C14.8881 10.1094 14.0131 11.1563 13.4428 12.3047C12.8412 13.5 12.599 14.5625 12.599 15.9532C12.599 18.1875 13.3803 20.125 14.9037 21.6797C15.8256 22.625 16.5678 23.1094 18.0834 23.7735C19.4037 24.3594 20.56 25.5782 21.0912 26.9532C21.2709 27.4219 21.3881 27.9375 21.4662 28.5704L21.5131 28.9844H20.8022H20.099V28.6875C20.099 27.8985 19.5365 26.6485 18.9115 26.0235C18.3647 25.4688 18.0287 25.25 17.0756 24.8204C16.0678 24.3594 15.5365 24.0313 14.7318 23.3985C13.0678 22.0704 11.849 20.0469 11.3725 17.8125C11.185 16.8907 11.185 14.9688 11.3725 14.1016C11.8256 12.1016 12.6459 10.5782 14.0053 9.21098C14.6537 8.55473 15.4897 7.89067 15.6615 7.89067C15.6928 7.89067 15.8647 8.10942 16.0365 8.37504ZM21.5053 31.4063V32.4219H20.8022H20.099V31.4063V30.3907H20.8022H21.5053V31.4063Z" fill="white"/>
<path d="M2.30215 4.22665C2.11465 4.49228 1.95059 4.74228 1.92715 4.79696C1.90372 4.85946 6.41934 8.17196 6.65372 8.2579C6.73965 8.28915 7.4584 7.17196 7.3959 7.11728C7.27872 7.0079 2.68497 3.75009 2.66153 3.75009C2.6459 3.75009 2.48965 3.96884 2.30215 4.22665Z" fill="white"/>
<path d="M3.4584 11.172C1.2709 11.7188 0.763089 11.8751 0.770901 11.9767C0.778714 12.047 0.841214 12.3517 0.919339 12.6563C1.02871 13.0938 1.0834 13.2032 1.18496 13.172C1.25528 13.1485 2.47403 12.8438 3.88809 12.4923C5.30996 12.1407 6.48184 11.836 6.49746 11.8282C6.54434 11.7892 6.25528 10.547 6.20059 10.5157C6.17715 10.5001 4.94278 10.797 3.4584 11.172Z" fill="white"/>
<path d="M7.77869 18.2813C7.65369 18.8047 7.43494 19.0938 7.00525 19.2969C6.43494 19.5782 6.11462 19.5001 5.09119 18.8204L4.23181 18.2501L3.60681 18.8751L2.98181 19.5001L3.45056 20.1641C4.12244 21.1485 4.18494 21.2813 4.14587 21.7969C4.08337 22.6329 3.724 22.9141 2.30212 23.2032L1.41931 23.3829L1.44275 24.211L1.46619 25.0313L2.44275 25.2501C3.79431 25.5469 4.09119 25.7969 4.14587 26.6641L4.17712 27.1641L3.57556 28.0469L2.974 28.9297L3.599 29.5547L4.224 30.1797L5.05994 29.6016L5.90369 29.0235H6.43494C7.32556 29.0235 7.63806 29.3829 7.90369 30.6797C8.00525 31.1407 8.099 31.586 8.11462 31.6563C8.15369 31.7813 8.26306 31.7969 8.92712 31.7969C9.349 31.7969 9.71619 31.7657 9.73962 31.7344C9.76306 31.6954 9.87244 31.2501 9.98181 30.7344C10.2006 29.711 10.3724 29.3907 10.8099 29.1485C11.1302 28.9688 11.724 28.9297 11.9974 29.0704C12.0912 29.1172 12.5131 29.3907 12.9349 29.6719L13.7006 30.1876L14.4115 29.4688L15.1302 28.7579L15.0287 28.461C14.9662 28.2969 14.8177 28.0079 14.6849 27.8282C14.4662 27.5001 14.3177 27.3751 13.1302 26.4922L12.599 26.1016L12.3177 26.5313C11.8177 27.2813 10.9037 27.9297 9.98962 28.1719C9.44275 28.3204 8.349 28.3126 7.82556 28.1563C6.39587 27.7344 5.23181 26.5079 4.94275 25.1016C4.80994 24.461 4.88025 23.3438 5.09119 22.7969C5.59119 21.5079 6.70837 20.5157 8.00525 20.2188C8.45056 20.1172 8.43494 20.2422 8.14587 18.9454C7.89587 17.836 7.88806 17.8204 7.77869 18.2813Z" fill="white"/>
<path d="M31.6069 20.0938C31.4662 20.1329 31.2944 20.2422 31.2319 20.336C31.1303 20.5 30.685 23.1875 30.7553 23.2579C30.8178 23.3204 31.6225 21.9688 31.9897 21.1875C32.349 20.4297 32.3647 20.3672 32.2475 20.2344C32.0834 20.0469 31.9115 20.0157 31.6069 20.0938Z" fill="white"/>
<path d="M33.849 26.2501V26.9532H36.2709H38.7006L38.6771 26.2657L38.6537 25.586L36.2552 25.5626L33.849 25.5469V26.2501Z" fill="white"/>
<path d="M33.1537 29.7032C32.9349 29.9766 32.7553 30.211 32.7631 30.2344C32.7631 30.2579 33.6849 31.0313 34.8021 31.961L36.8412 33.6563L37.2553 33.1719C37.4896 32.9141 37.6693 32.6563 37.6693 32.6172C37.6693 32.5391 33.7865 29.2891 33.6381 29.2422C33.5912 29.2266 33.3803 29.4376 33.1537 29.7032Z" fill="white"/>
<path d="M29.7084 33.4766V35.8594H30.4115H31.1146V33.4766V31.0938H30.4115H29.7084V33.4766Z" fill="white"/>
<path d="M18.0677 35.8594V36.5626H20.8021H23.5365V35.8594V35.1563H20.8021H18.0677V35.8594Z" fill="white"/>
<path d="M18.0834 38.5469C18.1068 39.0547 18.1381 39.1641 18.3412 39.4219C18.7865 39.9688 18.9115 40.0001 20.7787 40.0001C22.5365 40.0001 22.7318 39.9688 23.099 39.6251C23.4115 39.3282 23.5365 38.9922 23.5365 38.4376V37.9688H20.7943H18.0521L18.0834 38.5469Z" fill="white"/>
</g>
<defs>
<clipPath id="clip0_446_395">
<rect width="40" height="40" fill="white" transform="translate(0.333374 6.10352e-05)"/>
</clipPath>
</defs>
</svg>
