<svg width="40" height="37" viewBox="0 0 40 37" fill="none" xmlns="http://www.w3.org/2000/svg">
<g clipPath="url(#clip0_423_731)">
<path d="M32.888 12.1912C32.4731 12.0483 32.0431 11.9132 31.6004 11.7854C31.6732 11.4884 31.7399 11.1953 31.7993 10.9071C32.774 6.17573 32.1367 2.36407 29.9605 1.10911C27.8738 -0.094233 24.4611 1.16044 21.0145 4.15993C20.6831 4.44836 20.3507 4.75374 20.0185 5.07378C19.7972 4.86203 19.5762 4.6574 19.3557 4.46168C15.7436 1.25443 12.1229 -0.0971521 9.94884 1.16144C7.86412 2.36827 7.24675 5.9516 8.12414 10.4356C8.20887 10.8687 8.30791 11.311 8.41991 11.7607C7.90748 11.9061 7.41279 12.0612 6.93946 12.2262C2.70458 13.7027 0 16.0166 0 18.4168C0 20.8958 2.90337 23.3822 7.31432 24.8899C7.66241 25.0088 8.02361 25.1213 8.39584 25.2281C8.27501 25.7145 8.16992 26.1911 8.08171 26.656C7.24512 31.0621 7.89844 34.5608 9.97761 35.76C12.1252 36.9985 15.7295 35.7255 19.2391 32.6577C19.5165 32.4151 19.7949 32.158 20.0738 31.8884C20.4352 32.2365 20.7962 32.5659 21.1551 32.875C24.5546 35.8003 27.9122 36.9816 29.9894 35.779C32.1349 34.537 32.8321 30.7786 31.9269 26.2059C31.8578 25.8567 31.7773 25.4999 31.687 25.1368C31.9401 25.062 32.1886 24.9847 32.4309 24.9044C37.0165 23.3851 40 20.9289 40 18.4168C40 16.0079 37.2082 13.6784 32.888 12.1912ZM31.8934 23.2824C31.6747 23.3548 31.4503 23.4248 31.2216 23.4926C30.7154 21.89 30.0322 20.1859 29.1961 18.4252C29.9939 16.7064 30.6507 15.024 31.1428 13.4318C31.552 13.5502 31.9491 13.6751 32.3318 13.8069C36.0333 15.0811 38.2912 16.9652 38.2912 18.4168C38.2912 19.9631 35.8528 21.9705 31.8934 23.2824ZM30.2506 26.5378C30.6509 28.5598 30.708 30.3879 30.4429 31.817C30.2047 33.1012 29.7256 33.9573 29.1332 34.3002C27.8726 35.0299 25.1768 34.0814 22.2696 31.5796C21.9363 31.2928 21.6006 30.9866 21.2638 30.6625C22.3909 29.4298 23.5173 27.9968 24.6167 26.4053C26.5504 26.2337 28.3773 25.9532 30.0341 25.5702C30.1157 25.8993 30.1881 26.2221 30.2506 26.5378ZM13.6369 34.1741C12.4053 34.6091 11.4244 34.6215 10.8314 34.2796C9.56971 33.5519 9.04518 30.7428 9.76066 26.9747C9.84261 26.5431 9.94016 26.0998 10.0526 25.6467C11.6912 26.009 13.5047 26.2698 15.443 26.4269C16.5498 27.9843 17.7088 29.4157 18.8768 30.6691C18.6216 30.9155 18.3674 31.15 18.1146 31.371C16.5627 32.7276 15.0075 33.69 13.6369 34.1741ZM7.86697 23.2729C5.91653 22.6063 4.30579 21.7399 3.2017 20.7944C2.2096 19.9448 1.70872 19.1013 1.70872 18.4168C1.70872 16.9603 3.88023 15.1025 7.50193 13.8398C7.94137 13.6866 8.40139 13.5422 8.87879 13.4065C9.37932 15.0347 10.0359 16.737 10.8283 18.4584C10.0257 20.2054 9.35974 21.9348 8.85429 23.5821C8.51396 23.4842 8.18424 23.3813 7.86697 23.2729ZM9.8011 10.1074C9.04938 6.26566 9.54863 3.36756 10.8049 2.64032C12.1431 1.8656 15.1023 2.97019 18.2211 5.73949C18.4204 5.91649 18.6206 6.10176 18.8213 6.29343C17.6591 7.54134 16.5107 8.96205 15.4138 10.5102C13.5325 10.6846 11.7317 10.9647 10.0761 11.3398C9.97198 10.921 9.87978 10.5096 9.8011 10.1074ZM27.0553 14.3679C26.6595 13.6843 26.2532 13.0168 25.8389 12.3675C27.1152 12.5289 28.338 12.743 29.4863 13.0051C29.1415 14.11 28.7118 15.2652 28.206 16.4495C27.8432 15.7606 27.4594 15.0661 27.0553 14.3679ZM20.0191 7.51464C20.8073 8.36853 21.5966 9.32189 22.3729 10.3563C21.5906 10.3193 20.7986 10.3001 20 10.3001C19.209 10.3001 18.4228 10.3189 17.6453 10.3552C18.4224 9.33044 19.2186 8.37836 20.0191 7.51464ZM12.9378 14.3798C12.5424 15.0653 12.1658 15.7561 11.8086 16.4482C11.311 15.268 10.8853 14.1076 10.5376 12.987C11.6788 12.7316 12.8959 12.5228 14.164 12.3645C13.7439 13.0198 13.3342 13.6923 12.9378 14.3798ZM14.2005 24.591C12.8903 24.4449 11.655 24.2468 10.514 23.9984C10.8673 22.8579 11.3024 21.6726 11.8106 20.4671C12.1686 21.1587 12.5468 21.8497 12.9446 22.5368C13.3498 23.2368 13.7696 23.9224 14.2005 24.591ZM20.0664 29.4395C19.2565 28.5657 18.4486 27.5991 17.6597 26.5593C18.4256 26.5894 19.2064 26.6048 20 26.6048C20.8153 26.6048 21.6213 26.5864 22.4146 26.5511C21.6357 27.6095 20.8492 28.5776 20.0664 29.4395ZM28.2223 20.4057C28.757 21.6242 29.2077 22.8033 29.5655 23.9244C28.4057 24.189 27.1536 24.4021 25.8342 24.5604C26.2495 23.9024 26.6594 23.2234 27.0621 22.525C27.4696 21.8185 27.8565 21.1108 28.2223 20.4057ZM25.582 21.6714C24.9567 22.7555 24.3148 23.7905 23.6631 24.7674C22.4761 24.8523 21.2498 24.896 20 24.896C18.7552 24.896 17.5444 24.8573 16.3784 24.7816C15.7005 23.7919 15.0446 22.7539 14.4233 21.6807C13.8037 20.6104 13.2335 19.5311 12.7167 18.4578C13.2333 17.3821 13.8022 16.3016 14.4182 15.2332C15.036 14.162 15.686 13.1293 16.3576 12.1457C17.5473 12.0558 18.7671 12.0089 19.9999 12.0089C21.2383 12.0089 22.4598 12.0562 23.649 12.1469C24.3105 13.1232 24.9562 14.1528 25.5763 15.2242C26.2035 16.3076 26.7797 17.3809 27.3007 18.4336C26.7813 19.5043 26.2064 20.5885 25.582 21.6714ZM29.107 2.58949C30.4465 3.36193 30.9674 6.47719 30.1258 10.5623C30.0721 10.8229 30.0116 11.0884 29.946 11.3575C28.2865 10.9746 26.4844 10.6896 24.5977 10.5126C23.4986 8.94746 22.3596 7.52453 21.2164 6.29264C21.5237 5.99695 21.8307 5.715 22.1363 5.44893C25.0894 2.87898 27.8495 1.86432 29.107 2.58949ZM20 14.845C21.9727 14.845 23.5719 16.4441 23.5719 18.4168C23.5719 20.3895 21.9727 21.9887 20 21.9887C18.0273 21.9887 16.4281 20.3895 16.4281 18.4168C16.4281 16.4441 18.0273 14.845 20 14.845Z" fill="#00D8FF"/>
</g>
<defs>
<clipPath id="clip0_423_731">
<rect width="40" height="35.625" fill="white" transform="translate(0 0.656219)"/>
</clipPath>
</defs>
</svg>
