<svg width="42" height="41" viewBox="0 0 42 41" fill="none" xmlns="http://www.w3.org/2000/svg">
<path d="M3.69531 0.854248C3.03906 1.01831 2.54688 1.29956 2.04688 1.79956C1.53906 2.30737 1.22656 2.86206 1.08594 3.54175C0.960938 4.1355 0.960938 37.2058 1.08594 37.7917C1.375 39.1355 2.45312 40.2136 3.79688 40.5027C4.38281 40.6277 37.6094 40.6277 38.2031 40.5027C39.5312 40.2214 40.6328 39.1121 40.9141 37.7917C41.0391 37.198 41.0391 4.12769 40.9141 3.54175C40.625 2.198 39.5391 1.11206 38.2031 0.830811C37.5703 0.697998 4.22656 0.721436 3.69531 0.854248ZM38.0312 3.24487C38.2344 3.34644 38.3984 3.5105 38.5 3.71362C38.6484 4.00269 38.6562 4.16675 38.6562 7.073V10.1199H21H3.34375V7.04956C3.35156 3.59644 3.34375 3.6355 3.9375 3.27612L4.24219 3.08862H20.9844C37.6094 3.08862 37.7266 3.08862 38.0312 3.24487ZM38.6562 24.8855C38.6562 37.1902 38.6562 37.3152 38.5 37.6199C38.3984 37.823 38.2344 37.9871 38.0312 38.0886C37.7266 38.2449 37.6094 38.2449 20.9922 38.2449H4.26562L3.95312 38.073C3.76562 37.9636 3.57812 37.7761 3.49219 37.6042C3.35156 37.323 3.34375 36.9324 3.34375 24.8855V12.4636H21H38.6562V24.8855Z" fill="white"/>
<path d="M6.375 5.59644C6.03906 5.76831 5.76562 6.22925 5.76562 6.60425C5.76562 7.198 6.34375 7.77612 6.9375 7.77612C7.53125 7.77612 8.10938 7.198 8.10938 6.60425C8.10938 6.21362 7.83594 5.76831 7.48438 5.58862C7.10156 5.39331 6.75 5.39331 6.375 5.59644Z" fill="white"/>
<path d="M11.0625 5.59644C10.7266 5.76831 10.4531 6.22925 10.4531 6.60425C10.4531 7.198 11.0312 7.77612 11.625 7.77612C12.2188 7.77612 12.7969 7.198 12.7969 6.60425C12.7969 6.21362 12.5234 5.76831 12.1719 5.58862C11.7891 5.39331 11.4375 5.39331 11.0625 5.59644Z" fill="white"/>
<path d="M15.75 5.59644C15.4141 5.76831 15.1406 6.22925 15.1406 6.60425C15.1406 6.99487 15.4141 7.44019 15.7656 7.61987C15.9297 7.70581 16.1797 7.77612 16.3125 7.77612C16.9062 7.77612 17.4844 7.198 17.4844 6.60425C17.4844 6.21362 17.2109 5.76831 16.8594 5.58862C16.4766 5.39331 16.125 5.39331 15.75 5.59644Z" fill="white"/>
<path d="M27.4688 5.59644C27.1328 5.76831 26.8594 6.22925 26.8594 6.60425C26.8594 6.99487 27.1328 7.44019 27.4844 7.61987C27.7812 7.76831 27.9375 7.77612 31.5469 7.77612C35.1562 7.77612 35.3125 7.76831 35.6094 7.61987C35.9609 7.44019 36.2344 6.99487 36.2344 6.60425C36.2344 6.21362 35.9609 5.76831 35.6094 5.58862C35.3125 5.44019 35.1641 5.43237 31.5312 5.43237C27.9297 5.44019 27.7422 5.448 27.4688 5.59644Z" fill="white"/>
<path d="M23.9375 16.159C23.7344 16.2683 23.5703 16.448 23.4531 16.6824C23.3594 16.8777 21.7109 20.698 19.7969 25.1746C17.6875 30.1043 16.3125 33.409 16.3125 33.5574C16.3125 33.948 16.5859 34.3933 16.9375 34.573C17.5547 34.8933 18.2109 34.6746 18.5312 34.0418C19.0938 32.9168 25.6875 17.3621 25.6875 17.1512C25.6875 16.7605 25.4141 16.3152 25.0625 16.1355C24.6641 15.9324 24.3203 15.9402 23.9375 16.159Z" fill="white"/>
<path d="M13.4531 19.6355C13.3203 19.7058 11.8516 20.8542 10.1953 22.1824C7.08594 24.6667 6.9375 24.8152 6.9375 25.3542C6.9375 25.8933 7.08594 26.0417 10.1953 28.5261C11.8516 29.8542 13.3203 31.0027 13.4531 31.073C14.1719 31.4714 15.1406 30.8777 15.1406 30.0495C15.1406 29.5183 14.9609 29.3308 12.4688 27.3464C11.1484 26.2839 10.0625 25.3855 10.0625 25.3542C10.0625 25.323 11.1484 24.4245 12.4688 23.362C14.9609 21.3777 15.1406 21.1902 15.1406 20.6589C15.1406 19.8308 14.1719 19.237 13.4531 19.6355Z" fill="white"/>
<path d="M27.4688 19.6589C27.1406 19.8308 26.8594 20.2917 26.8594 20.6589C26.8594 21.1902 27.0391 21.3777 29.5312 23.362C30.8516 24.4245 31.9375 25.323 31.9375 25.3542C31.9375 25.3855 30.8516 26.2839 29.5312 27.3464C27.0391 29.3308 26.8594 29.5183 26.8594 30.0495C26.8594 30.8777 27.8281 31.4714 28.5469 31.073C28.6797 31.0027 30.1484 29.8542 31.8047 28.5261C34.9141 26.0417 35.0625 25.8933 35.0625 25.3542C35.0625 24.8152 34.9141 24.6667 31.8047 22.1824C30.1484 20.8542 28.6797 19.7058 28.5469 19.6355C28.2266 19.4558 27.8281 19.4636 27.4688 19.6589Z" fill="white"/>
</svg>
