<svg width="41" height="41" viewBox="0 0 41 41" fill="none" xmlns="http://www.w3.org/2000/svg">
<path d="M20.4264 0.326921C18.6677 0.725554 17.1435 2.26537 16.7762 4.00841C16.4948 5.33718 16.7527 6.54871 17.5578 7.66644L17.9799 8.25267L17.6125 8.47934C16.4244 9.22189 15.3458 10.5194 14.8221 11.8638C14.486 12.7002 14.3766 13.3176 14.3375 14.5917C14.2984 15.7251 14.3062 15.8267 14.4625 16.1393C14.572 16.3582 14.7283 16.5145 14.9393 16.6239C15.2364 16.7803 15.3849 16.7803 21.3878 16.7803C27.2657 16.7803 27.5392 16.7725 27.8206 16.6318C28.0004 16.538 28.188 16.3504 28.2974 16.155C28.4772 15.8267 28.485 15.7876 28.4381 14.5604C28.3834 13.1066 28.2349 12.4344 27.7581 11.4105C27.2188 10.2615 26.3121 9.19844 25.2803 8.51842C25.0537 8.3621 24.8661 8.22922 24.8661 8.21359C24.8661 8.19796 24.9911 8.01818 25.1553 7.81495C27.4298 4.84475 25.3663 0.405085 21.6301 0.240942C21.1846 0.225309 20.7391 0.256575 20.4264 0.326921ZM22.1851 2.71871C23.1465 3.08608 23.7249 3.93024 23.7249 4.97763C23.7327 5.68892 23.5451 6.14226 23.0683 6.61906C22.5915 7.09585 22.1382 7.28345 21.4269 7.27563C20.4655 7.27563 19.6838 6.79883 19.2461 5.94685C18.4958 4.49302 19.7151 2.58584 21.4034 2.56239C21.5832 2.55457 21.9349 2.63274 22.1851 2.71871ZM22.3961 9.78467C23.7483 10.0739 24.9442 11.004 25.5617 12.2546C25.8666 12.8721 26.1089 13.7475 26.1167 14.2165V14.4354H21.3878H16.6589V14.2165C16.6667 13.771 16.9012 12.9034 17.1826 12.3328C17.5891 11.5043 18.4958 10.5976 19.3321 10.1911C20.3404 9.69087 21.3409 9.55799 22.3961 9.78467Z" fill="white"/>
<path d="M13.1025 18.7422C11.9457 18.9141 10.4606 19.5082 9.56172 20.1726C9.14745 20.4774 7.65454 21.7593 6.87291 22.4784L6.65405 22.6738L6.13035 22.4784C5.71609 22.3377 5.45034 22.2908 4.93446 22.2986C4.12938 22.3064 3.63695 22.4862 1.76885 23.4476C0.658932 24.0182 0.502606 24.1276 0.346279 24.4012C0.244667 24.5732 0.166504 24.8467 0.166504 25.0031C0.166504 25.2375 0.932503 26.8321 3.82454 32.5849L7.47476 39.8775L7.8265 40.0495C8.01409 40.1511 8.28766 40.2292 8.42054 40.2292C8.58468 40.2292 9.23343 39.9479 10.2417 39.4476C11.4845 38.8223 11.9066 38.5644 12.2818 38.2205C12.8602 37.6811 13.2667 36.9073 13.3917 36.1022L13.4855 35.5395H20.5984C26.4606 35.5395 27.8519 35.516 28.485 35.4222C30.2593 35.1565 31.8226 34.367 33.081 33.1086C33.7376 32.4598 39.4279 24.8858 39.7718 24.2058C40.7957 22.2126 39.7483 19.8834 37.5441 19.2737C36.8876 19.0861 36.4499 19.0861 35.7542 19.2659C34.7693 19.5316 34.699 19.5942 30.9941 23.5727L30.6658 23.9244L30.4547 23.4789C29.9858 22.5253 29.0244 21.7671 28.0082 21.5561C27.7425 21.5013 26.3903 21.4701 24.2329 21.4701C21.8568 21.4701 20.8172 21.4466 20.7 21.3841C20.6062 21.3294 20.1763 21.0246 19.7464 20.6963C18.4332 19.688 17.8236 19.3597 16.6433 19.0001C15.549 18.6718 14.2437 18.578 13.1025 18.7422ZM15.8382 21.1965C16.5573 21.3919 17.3311 21.8062 18.0659 22.369C19.0351 23.1193 19.4728 23.4085 19.9496 23.6039C20.3561 23.7681 20.4811 23.7759 24.0063 23.815C28.0786 23.8619 27.9613 23.8384 28.2896 24.4247C28.5085 24.8155 28.5085 25.1594 28.2896 25.5502C27.9613 26.1286 28.0473 26.113 24.2642 26.1599C21.0126 26.199 20.8797 26.2068 20.6765 26.3631C20.2857 26.6523 20.1606 26.8946 20.1606 27.3323C20.1606 27.77 20.2857 28.0123 20.6765 28.3015C20.8876 28.4657 20.9735 28.4657 24.8504 28.4657H28.8133L29.3057 28.2546C29.5793 28.1452 29.9232 27.9654 30.0717 27.8638C30.2281 27.77 31.6037 26.3475 33.1279 24.7139C34.6521 23.0802 36.0043 21.6811 36.145 21.603C36.4811 21.4232 36.8798 21.4388 37.2471 21.6499C37.7708 21.9469 37.9662 22.5097 37.7317 23.0646C37.6692 23.2053 36.3092 25.0812 34.699 27.2229C31.4083 31.6078 31.0957 31.9518 29.9154 32.5302C28.5632 33.1946 29.2432 33.1477 20.4499 33.1789L12.6335 33.1946L10.4293 28.794L8.23294 24.3934L9.45229 23.3225C11.2188 21.7749 11.8363 21.4076 13.1416 21.1183C13.7747 20.9777 15.1738 21.0167 15.8382 21.1965ZM5.4816 24.7686L5.83333 24.9483L8.42835 30.1071C9.85874 32.9444 11.0468 35.3831 11.0781 35.516C11.1093 35.7036 11.0781 35.8677 10.9452 36.1413C10.7732 36.493 10.6951 36.5478 9.84311 36.9855C9.34286 37.2434 8.91296 37.431 8.89733 37.4154C8.82698 37.345 2.98038 25.6127 2.98038 25.5502C2.98038 25.4564 4.77813 24.5966 4.97354 24.5966C5.05952 24.5966 5.29401 24.6748 5.4816 24.7686Z" fill="white"/>
</svg>
